<mxfile host="app.diagrams.net" modified="2024-05-12T23:19:46.289Z" agent="Mozilla/5.0 (Windows NT 10.0; Win64; x64) AppleWebKit/537.36 (KHTML, like Gecko) Chrome/124.0.0.0 Safari/537.36 Edg/124.0.0.0" version="24.4.0" etag="b5SdBPIvLFO3Y6bFBAA3" type="github">
  <diagram name="PÃ¡gina-1" id="KDaMmYrt1my0MrypVJ8I">
    <mxGraphModel>
      <root>
        <mxCell id="0" />
        <mxCell id="1" parent="0" />
      </root>
    </mxGraphModel>
  </diagram>
</mxfile>
